<svg xmlns="http://www.w3.org/2000/svg" width="1756" height="583" viewBox="0 0 1756 583">
    <defs>
        <filter id="zvofs46ima" width="104.7%" height="113.2%" x="-2.4%" y="-6.6%" filterUnits="objectBoundingBox">
            <feOffset dy="1" in="SourceAlpha" result="shadowOffsetOuter1"/>
            <feGaussianBlur in="shadowOffsetOuter1" result="shadowBlurOuter1" stdDeviation="8"/>
            <feColorMatrix in="shadowBlurOuter1" result="shadowMatrixOuter1" values="0 0 0 0 0 0 0 0 0 0.443137255 0 0 0 0 0.792156863 0 0 0 0.2 0"/>
            <feMerge>
                <feMergeNode in="shadowMatrixOuter1"/>
                <feMergeNode in="SourceGraphic"/>
            </feMerge>
        </filter>
        <filter id="yc8uryaovb" width="103.9%" height="113.6%" x="-2%" y="-6.8%" filterUnits="objectBoundingBox">
            <feOffset dy="-1" in="SourceAlpha" result="shadowOffsetOuter1"/>
            <feGaussianBlur in="shadowOffsetOuter1" result="shadowBlurOuter1" stdDeviation="8"/>
            <feColorMatrix in="shadowBlurOuter1" result="shadowMatrixOuter1" values="0 0 0 0 0 0 0 0 0 0.369179411 0 0 0 0 0.659648508 0 0 0 0.16 0"/>
            <feMerge>
                <feMergeNode in="shadowMatrixOuter1"/>
                <feMergeNode in="SourceGraphic"/>
            </feMerge>
        </filter>
    </defs>
    <g fill="none" fill-rule="evenodd">
        <g fill="#FFF">
            <g>
                <g filter="url(#zvofs46ima)" transform="translate(195 -728) translate(-169.316 753) matrix(-1 0 0 1 1540.316 0)">
                    <g>
                        <path d="M115.055 220.02c-53.005-2.362-97.491-33.838-99.364-70.305-1.872-36.466 39.579-64.113 92.583-61.751 53.005 2.362 97.491 33.838 99.364 70.305 1.872 36.466-39.579 64.113-92.583 61.751z" transform="translate(.627) rotate(-17 111.664 153.992)"/>
                        <path d="M241.216 274.18c-45.551-2.03-83.995-33.237-85.868-69.704-1.872-36.466 33.536-64.382 79.087-62.352 45.55 2.03 83.995 33.237 85.867 69.703 1.873 36.466-33.536 64.383-79.086 62.353z" transform="translate(.627) rotate(-17 237.825 208.152)"/>
                        <path d="M671.379 344.588c-56.317-2.51-103.49-34.106-105.362-70.573-1.872-36.466 42.264-63.993 98.581-61.484 56.318 2.51 103.49 34.106 105.362 70.572 1.873 36.467-42.264 63.994-98.581 61.485z" transform="translate(.627) rotate(-17 667.989 278.56)"/>
                        <path d="M797.54 344.588c-45.55-2.03-83.995-33.238-85.867-69.704-1.873-36.466 33.536-64.383 79.086-62.353 45.551 2.03 83.995 33.237 85.868 69.704 1.872 36.466-33.536 64.382-79.087 62.353z" transform="translate(.627) rotate(-17 794.15 278.56)"/>
                        <path d="M1031.02 320.496c-61.286-2.73-112.898-42.513-115.278-88.855-2.379-46.343 45.375-81.697 106.661-78.966 61.287 2.73 112.898 42.513 115.278 88.856 2.38 46.342-45.374 81.696-106.661 78.965z" transform="translate(.627) rotate(-17 1026.712 236.586)"/>
                        <path d="M1119.18 271.753c-36.44-1.624-67.91-40.509-70.29-86.851-2.379-46.343 25.233-82.595 61.674-80.97 36.44 1.623 67.91 40.508 70.29 86.85 2.38 46.343-25.233 82.595-61.673 80.97z" transform="translate(.627) rotate(-17 1114.872 187.842)"/>
                        <path d="M1267.964 253.207c-70.397-3.137-129.994-54.95-133.115-115.727-3.12-60.777 51.417-107.504 121.814-104.367 70.397 3.137 129.994 54.95 133.115 115.727 3.12 60.777-51.417 107.504-121.814 104.367z" transform="translate(.627) rotate(-17 1262.313 143.16)"/>
                        <path d="M417.286 443.392c-130.855-5.83-240.381-77.688-244.633-160.497-4.252-82.809 98.38-145.212 229.235-139.38 130.855 5.83 240.38 77.688 244.633 160.497 4.252 82.809-98.38 145.211-229.235 139.38z" transform="translate(.627) rotate(-17 409.587 293.453)"/>
                    </g>
                    <path d="M918.938 358.405c-61.266-2.725-112.857-42.5-115.23-88.841-2.375-46.341 45.366-81.7 106.632-78.974 61.266 2.724 112.857 42.5 115.23 88.841 2.375 46.341-45.366 81.699-106.632 78.974z" transform="rotate(-17 914.639 274.497)"/>
                </g>
                <g filter="url(#yc8uryaovb)" transform="translate(195 -728) translate(-169.316 753) translate(.316 41)">
                    <ellipse cx="254.002" cy="137.847" rx="109.533" ry="69.429" transform="rotate(4 254.002 137.847)"/>
                    <ellipse cx="396.156" cy="195.644" rx="94.13" ry="69.426" transform="rotate(4 396.156 195.644)"/>
                    <ellipse cx="880.847" cy="270.78" rx="116.378" ry="69.431" transform="rotate(4 880.847 270.78)"/>
                    <ellipse cx="1023" cy="270.78" rx="94.13" ry="69.426" transform="rotate(4 1023 270.78)"/>
                    <ellipse cx="1158.3" cy="266.445" rx="126.648" ry="88.231" transform="rotate(4 1158.3 266.445)"/>
                    <ellipse cx="1285.04" cy="225.987" rx="126.649" ry="88.231" transform="rotate(4 1285.04 225.987)"/>
                    <ellipse cx="1384.377" cy="173.97" rx="75.31" ry="88.224" transform="rotate(4 1384.377 173.97)"/>
                    <ellipse cx="1550.507" cy="126.288" rx="145.477" ry="115.709" transform="rotate(4 1550.507 126.288)"/>
                    <path d="M587.661 444.313c149.337-1.626 271.308-73.521 272.43-160.583 1.121-87.061-119.03-156.32-268.368-154.694-149.336 1.626-271.307 73.521-272.429 160.582-1.121 87.062 119.03 156.32 268.367 154.695z" transform="rotate(4 589.692 286.674)"/>
                    <path d="M1375.494 473.21c149.337-1.625 271.307-73.52 272.429-160.582 1.122-87.06-119.03-156.32-268.367-154.694-149.337 1.626-271.307 73.521-272.429 160.582-1.122 87.062 119.03 156.32 268.367 154.695z" transform="rotate(4 1377.525 315.572)"/>
                    <path d="M279.373 473.212c149.338-1.625 271.309-73.52 272.43-160.582 1.122-87.061-119.03-156.32-268.368-154.694-149.338 1.626-271.31 73.521-272.431 160.582-1.122 87.061 119.031 156.32 268.369 154.694z" transform="rotate(4 281.404 315.574)"/>
                </g>
            </g>
        </g>
    </g>
</svg>
