<svg xmlns="http://www.w3.org/2000/svg" width="2639" height="565" viewBox="0 0 2639 565">
    <defs>
        <filter id="t838u42xna" width="102.9%" height="113.2%" x="-1.5%" y="-6.6%" filterUnits="objectBoundingBox">
            <feOffset dy="1" in="SourceAlpha" result="shadowOffsetOuter1"/>
            <feGaussianBlur in="shadowOffsetOuter1" result="shadowBlurOuter1" stdDeviation="8"/>
            <feColorMatrix in="shadowBlurOuter1" result="shadowMatrixOuter1" values="0 0 0 0 0 0 0 0 0 0.443137255 0 0 0 0 0.792156863 0 0 0 0.2 0"/>
            <feMerge>
                <feMergeNode in="shadowMatrixOuter1"/>
                <feMergeNode in="SourceGraphic"/>
            </feMerge>
        </filter>
        <filter id="ya7slhbu5b" width="102.6%" height="114.3%" x="-1.3%" y="-7.2%" filterUnits="objectBoundingBox">
            <feOffset dy="-1" in="SourceAlpha" result="shadowOffsetOuter1"/>
            <feGaussianBlur in="shadowOffsetOuter1" result="shadowBlurOuter1" stdDeviation="8"/>
            <feColorMatrix in="shadowBlurOuter1" result="shadowMatrixOuter1" values="0 0 0 0 0 0 0 0 0 0.369179411 0 0 0 0 0.659648508 0 0 0 0.16 0"/>
            <feMerge>
                <feMergeNode in="shadowMatrixOuter1"/>
                <feMergeNode in="SourceGraphic"/>
            </feMerge>
        </filter>
    </defs>
    <g fill="none" fill-rule="evenodd">
        <g fill="#FFF">
            <g>
                <g filter="url(#t838u42xna)" transform="translate(439 -697) translate(-413.316 722) matrix(-1 0 0 1 2307.316 0)">
                    <g>
                        <path d="M186.393 221.982c-84.182-13.247-160.937-52.841-171.439-88.437-10.5-35.596 49.229-53.713 133.41-40.466 84.182 13.246 160.937 52.841 171.439 88.437 10.5 35.596-49.229 53.713-133.41 40.466z" transform="translate(.03) rotate(-17 167.379 157.53)"/>
                        <path d="M412.96 265.696c-81.974-11.384-158.072-49.469-169.97-85.064-11.9-35.596 44.906-55.224 126.88-43.84 81.972 11.384 158.07 49.47 169.97 85.065 11.898 35.596-44.908 55.223-126.88 43.84z" transform="translate(.03) rotate(-17 391.414 201.244)"/>
                        <path d="M1045.075 348.971c-119.298-20.335-227.314-78.193-241.26-129.229-13.947-51.035 71.458-75.922 190.756-55.586 119.298 20.335 227.314 78.193 241.26 129.228 13.946 51.036-71.458 75.923-190.756 55.587z" transform="translate(.03) rotate(-17 1019.823 256.563)"/>
                        <path d="M1300.866 334.777c-72.436-14.457-139.95-64.399-150.799-111.548-10.848-47.15 39.079-73.652 111.515-59.195 72.435 14.457 139.95 64.398 150.798 111.548 10.848 47.15-39.079 73.652-111.514 59.195z" transform="translate(.03) rotate(-17 1281.224 249.405)"/>
                        <path d="M1694.734 314.244c-97.393-14.748-187.342-62.76-200.907-107.24-13.565-44.478 54.391-68.579 151.784-53.83 97.393 14.747 187.342 62.76 200.907 107.239 13.565 44.478-54.392 68.58-151.784 53.831z" transform="translate(.03) rotate(-17 1670.172 233.709)"/>
                        <path d="M1899.039 259.98c-57.875-9.108-115.61-53.162-128.955-98.399-13.346-45.236 22.753-74.524 80.627-65.417 57.875 9.107 115.61 53.161 128.956 98.398 13.345 45.236-22.753 74.524-80.628 65.417z" transform="translate(.03) rotate(-17 1874.875 178.072)"/>
                        <path d="M2108.697 275.177c-111.803-17.593-216.626-79.95-234.128-139.276-17.502-59.326 58.945-93.157 170.748-75.564 111.804 17.594 216.627 79.95 234.129 139.276 17.502 59.327-58.945 93.158-170.749 75.564z" transform="translate(.03) rotate(-17 2077.007 167.757)"/>
                        <path d="M704.52 443.034C587.77 410.733 481.518 315.014 467.2 229.24c-14.318-85.774 68.719-129.122 185.469-96.821 116.75 32.3 223.001 128.02 237.32 213.793 14.318 85.774-68.72 129.123-185.47 96.822z" transform="translate(.03) rotate(-17 678.594 287.726)"/>
                    </g>
                    <path d="M1509.194 348.16c-97.301-15.307-186.99-64.385-200.327-109.618-13.336-45.234 54.73-69.495 152.032-54.188 97.301 15.306 186.99 64.384 200.327 109.617 13.336 45.234-54.73 69.494-152.032 54.188z" transform="rotate(-17 1485.047 266.256)"/>
                </g>
                <g filter="url(#ya7slhbu5b)" transform="translate(439 -697) translate(-413.316 722) translate(28.316 48)">
                    <ellipse cx="184.13" cy="132.442" rx="179.611" ry="63.194" transform="rotate(4 184.13 132.442)"/>
                    <ellipse cx="478.479" cy="234.904" rx="199.5" ry="88.5" transform="rotate(4 478.479 234.904)"/>
                    <ellipse cx="1320.638" cy="264.813" rx="319" ry="70" transform="rotate(4 1320.638 264.813)"/>
                    <ellipse cx="1669.194" cy="248.283" rx="207.692" ry="80.229" transform="rotate(4 1669.193 248.283)"/>
                    <ellipse cx="1877.33" cy="211.838" rx="207.693" ry="80.229" transform="rotate(4 1877.33 211.838)"/>
                    <ellipse cx="2040.463" cy="164.981" rx="123.603" ry="79.982" transform="rotate(4 2040.463 164.981)"/>
                    <ellipse cx="2313.287" cy="122.029" rx="238.602" ry="105.102" transform="rotate(4 2313.287 122.029)"/>
                    <path d="M790.258 412.043c156.513-7.367 286.651-63.797 290.673-126.04 4.022-62.245-119.597-106.732-276.11-99.366-156.512 7.367-286.651 63.797-290.673 126.04-4.022 62.245 119.597 106.732 276.11 99.366z" transform="rotate(4 797.54 299.34)"/>
                    <path d="M2017.75 435.211c244.79-9.175 448.363-80.49 454.693-159.287 6.33-78.797-186.98-135.237-431.77-126.062-244.79 9.176-448.364 80.491-454.693 159.288-6.33 78.797 186.98 135.237 431.77 126.061z" transform="rotate(4 2029.211 292.537)"/>
                </g>
            </g>
        </g>
    </g>
</svg>
