<svg xmlns="http://www.w3.org/2000/svg" width="16" height="16" viewBox="0 0 16 16">
    <g fill="none" fill-rule="evenodd">
        <g fill="#FFF" fill-rule="nonzero">
            <g>
                <g>
                    <g>
                        <path d="M7.415 12.447c.155.155.366.243.585.243.22 0 .43-.088.585-.243l3.121-3.12c.323-.324.323-.848 0-1.171-.323-.323-.847-.323-1.17 0L8.828 9.864V.828C8.828.37 8.458 0 8 0c-.457 0-.828.37-.828.828v9.036L5.464 8.156c-.323-.323-.847-.323-1.17 0-.323.323-.323.847 0 1.17l3.12 3.121z" transform="translate(-587 -571) translate(220 247) translate(40 308) translate(327 16)"/>
                        <path d="M15.172 7.172c-.457 0-.827.37-.827.828v6.345H1.655V8c0-.457-.37-.828-.827-.828C.37 7.172 0 7.542 0 8v6.62C0 15.383.618 16 1.38 16h13.24c.762 0 1.38-.618 1.38-1.38V8c0-.457-.37-.828-.828-.828z" transform="translate(-587 -571) translate(220 247) translate(40 308) translate(327 16)"/>
                    </g>
                </g>
            </g>
        </g>
    </g>
</svg>
