<svg xmlns="http://www.w3.org/2000/svg" width="40" height="54" viewBox="0 0 40 54">
    <g fill="none" fill-rule="evenodd">
        <g fill-rule="nonzero">
            <g>
                <g>
                    <g>
                        <g>
                            <path fill="#57A4FF" d="M30.855 15.3h8.153l-9.964-9v7.2c0 .994.81 1.8 1.811 1.8zM11.833.9H10.02C8.02.9 6.398 2.512 6.398 4.5v1.8h2.717V4.5c0-.497.406-.9.906-.9h1.812c.5 0 .905.403.905.9v10.8c0 .497-.405.9-.905.9H10.02c-.5 0-.906-.403-.906-.9V9.9H6.398v5.4c0 1.988 1.622 3.6 3.623 3.6h1.812c2 0 3.623-1.612 3.623-3.6V4.5c0-1.988-1.622-3.6-3.623-3.6z" transform="translate(-700 -441) translate(455 230) translate(40 186) translate(163 25) translate(42)"/>
                            <g fill="#1E81CE">
                                <path d="M39.902 15.246c-.005-.088-.023-.174-.055-.257-.009-.03-.02-.06-.034-.09-.048-.1-.114-.193-.196-.27l-9.964-9c-.076-.066-.164-.12-.258-.158-.027-.012-.055-.017-.083-.026-.07-.022-.143-.035-.217-.04l-.051-.005H16.362v-.9c-.003-2.484-2.03-4.497-4.53-4.5h-1.811c-2.5.003-4.526 2.016-4.53 4.5v.9h-.905C2.086 5.403.06 7.416.056 9.9v39.6c.004 2.484 2.03 4.497 4.53 4.5h30.798c2.5-.003 4.527-2.016 4.53-4.5V15.3c0-.019-.01-.035-.012-.054zm-9.953-6.91l6.715 6.064h-5.809c-.5 0-.906-.403-.906-.9V8.335zM7.303 4.5c0-1.491 1.217-2.7 2.718-2.7h1.812c1.5 0 2.717 1.209 2.717 2.7v10.8c0 1.491-1.217 2.7-2.717 2.7H10.02c-1.5 0-2.718-1.209-2.718-2.7v-4.5h.906v4.5c0 .994.811 1.8 1.812 1.8h1.812c1 0 1.811-.806 1.811-1.8V4.5c0-.994-.81-1.8-1.811-1.8H10.02c-1 0-1.812.806-1.812 1.8v.9h-.906v-.9zm4.53.9H10.02v-.9h1.812v.9zm23.551 46.8H4.586c-1.5 0-2.718-1.209-2.718-2.7V9.9c0-1.491 1.217-2.7 2.718-2.7h7.247v8.1H10.02V9.9c0-.497-.406-.9-.906-.9H6.398c-.5 0-.906.403-.906.9v5.4c.003 2.484 2.029 4.497 4.529 4.5h1.812c2.5-.003 4.526-2.016 4.529-4.5V7.2h11.776v6.3c0 1.491 1.216 2.7 2.717 2.7h7.247v33.3c0 1.491-1.217 2.7-2.718 2.7z" transform="translate(-700 -441) translate(455 230) translate(40 186) translate(163 25) translate(42)"/>
                                <path d="M13.644 25.2h19.929c.5 0 .906-.403.906-.9s-.406-.9-.906-.9H13.644c-.5 0-.906.403-.906.9s.406.9.906.9zM6.398 30.6h27.175c.5 0 .906-.403.906-.9s-.406-.9-.906-.9H6.398c-.5 0-.906.403-.906.9s.405.9.906.9zM6.398 36h27.175c.5 0 .906-.403.906-.9s-.406-.9-.906-.9H6.398c-.5 0-.906.403-.906.9s.405.9.906.9zM6.398 41.4h27.175c.5 0 .906-.403.906-.9s-.406-.9-.906-.9H6.398c-.5 0-.906.403-.906.9s.405.9.906.9zM26.326 45H6.398c-.5 0-.906.403-.906.9s.405.9.906.9h19.928c.5 0 .906-.403.906-.9s-.406-.9-.906-.9zM35.384 45c-.5 0-.905.403-.905.9v1.8c0 .497-.406.9-.906.9H31.76c-.5 0-.906.403-.906.9s.406.9.906.9h1.812c1.5 0 2.717-1.209 2.717-2.7v-1.8c0-.497-.405-.9-.906-.9z" transform="translate(-700 -441) translate(455 230) translate(40 186) translate(163 25) translate(42)"/>
                            </g>
                        </g>
                    </g>
                </g>
            </g>
        </g>
    </g>
</svg>
