<svg xmlns="http://www.w3.org/2000/svg" width="113" height="32" viewBox="0 0 113 32">
    <g fill="none" fill-rule="evenodd">
        <g fill="#FFF">
            <g>
                <g>
                    <text font-family="HelveticaNeue-Bold, Helvetica Neue" font-size="14" font-weight="bold" transform="translate(-40 -30) translate(40 30)">
                        <tspan x="17" y="20">ANYTRACK</tspan>
                    </text>
                    <g fill-rule="nonzero">
                        <path d="M10.406 0H1.178C.528 0 0 .527 0 1.178v9.189c0 .65.527 1.178 1.178 1.178.65 0 1.178-.528 1.178-1.178V2.356h8.05c.65 0 1.178-.527 1.178-1.178 0-.65-.528-1.178-1.178-1.178zM10.366 29.605h-8.01v-8.01c0-.651-.527-1.179-1.178-1.179-.65 0-1.178.528-1.178 1.178v9.189c0 .65.527 1.178 1.178 1.178h9.189c.65 0 1.178-.528 1.178-1.178 0-.651-.528-1.178-1.179-1.178zM111.783 20.416c-.65 0-1.178.528-1.178 1.178v8.05h-8.01c-.651 0-1.179.527-1.179 1.178 0 .65.528 1.178 1.178 1.178h9.189c.65 0 1.178-.527 1.178-1.178v-9.228c0-.65-.528-1.178-1.178-1.178zM111.822 0h-9.228c-.65 0-1.178.527-1.178 1.178 0 .65.528 1.178 1.178 1.178h8.05v8.05c0 .65.527 1.178 1.178 1.178.651 0 1.178-.528 1.178-1.178V1.178c0-.65-.527-1.178-1.178-1.178z" transform="translate(-40 -30) translate(40 30)"/>
                    </g>
                </g>
            </g>
        </g>
    </g>
</svg>
