<svg xmlns="http://www.w3.org/2000/svg" width="20" height="20" viewBox="0 0 20 20">
    <g fill="none" fill-rule="evenodd">
        <g fill="#A6A6A6" fill-rule="nonzero">
            <g>
                <g>
                    <g>
                        <path d="M19.717 18.578l-5.676-5.688c1.1-1.36 1.761-3.09 1.761-4.973 0-4.365-3.544-7.917-7.9-7.917C3.544 0 0 3.552 0 7.917s3.545 7.916 7.901 7.916c1.88 0 3.606-.663 4.964-1.765l5.676 5.688c.162.162.375.244.588.244.213 0 .426-.082.588-.244.326-.326.326-.853 0-1.178zM7.901 14.167c-3.44 0-6.238-2.804-6.238-6.25 0-3.447 2.798-6.25 6.238-6.25 3.44 0 6.238 2.803 6.238 6.25 0 3.446-2.798 6.25-6.238 6.25z" transform="translate(-930 -343) translate(430 180) translate(40 148) translate(460 15)"/>
                    </g>
                </g>
            </g>
        </g>
    </g>
</svg>
